<?xml version="1.0" encoding="UTF-8" standalone="no"?>
<!DOCTYPE svg PUBLIC "-//W3C//DTD SVG 1.1//EN"
 "http://www.w3.org/Graphics/SVG/1.1/DTD/svg11.dtd">
<!-- Generated by graphviz version 2.40.1 (20161225.0304)
 -->
<!-- Title: TRAMO_Workflow Pages: 1 -->
<svg width="458pt" height="598pt"
 viewBox="0.00 0.00 458.00 598.46" xmlns="http://www.w3.org/2000/svg" xmlns:xlink="http://www.w3.org/1999/xlink">
<g id="graph0" class="graph" transform="scale(1 1) rotate(0) translate(4 594.4626)">
<title>TRAMO_Workflow</title>
<polygon fill="#ffffff" stroke="transparent" points="-4,4 -4,-594.4626 454,-594.4626 454,4 -4,4"/>
<g id="clust1" class="cluster">
<title>cluster_main</title>
</g>
<g id="clust2" class="cluster">
<title>cluster_model</title>
</g>
<g id="clust3" class="cluster">
<title>cluster_user</title>
</g>
<!-- input -->
<g id="node1" class="node">
<title>input</title>
<polygon fill="#c0c0c0" stroke="#c0c0c0" points="230.7554,-574.2645 61.2446,-574.2645 61.2446,-533.0607 230.7554,-533.0607 230.7554,-574.2645"/>
<text text-anchor="middle" x="146" y="-557.8626" font-family="Arial" font-size="14.00" fill="#000000">Univariate Time Series, </text>
<text text-anchor="middle" x="146" y="-541.0626" font-family="Arial" font-size="14.00" fill="#000000">monthly/quarterly/annual</text>
</g>
<!-- transformation -->
<g id="node2" class="node">
<title>transformation</title>
<polygon fill="#c0c0c0" stroke="#c0c0c0" points="231.0392,-496.6645 60.9608,-496.6645 60.9608,-455.4607 231.0392,-455.4607 231.0392,-496.6645"/>
<text text-anchor="middle" x="146" y="-480.2626" font-family="Arial" font-size="14.00" fill="#000000">Applies/Tests for </text>
<text text-anchor="middle" x="146" y="-463.4626" font-family="Arial" font-size="14.00" fill="#000000">Log/Level transformation</text>
</g>
<!-- input&#45;&gt;transformation -->
<g id="edge1" class="edge">
<title>input&#45;&gt;transformation</title>
<path fill="none" stroke="#000000" d="M146,-532.8672C146,-524.9517 146,-515.7517 146,-507.0904"/>
<polygon fill="#000000" stroke="#000000" points="146,-496.9153 150.5001,-506.9153 146,-501.9153 146.0001,-506.9153 146.0001,-506.9153 146.0001,-506.9153 146,-501.9153 141.5001,-506.9154 146,-496.9153 146,-496.9153"/>
</g>
<!-- specialeffect -->
<g id="node3" class="node">
<title>specialeffect</title>
<polygon fill="#c0c0c0" stroke="#c0c0c0" points="231.5797,-410.4488 60.4203,-410.4488 60.4203,-369.245 231.5797,-369.245 231.5797,-410.4488"/>
<text text-anchor="middle" x="146" y="-394.0469" font-family="Arial" font-size="14.00" fill="#000000">Pretests for Trading Day </text>
<text text-anchor="middle" x="146" y="-377.2469" font-family="Arial" font-size="14.00" fill="#000000">and Easter effects</text>
</g>
<!-- transformation&#45;&gt;specialeffect -->
<g id="edge2" class="edge">
<title>transformation&#45;&gt;specialeffect</title>
<path fill="none" stroke="#000000" d="M146,-455.1922C146,-444.8139 146,-432.0677 146,-420.5967"/>
<polygon fill="#000000" stroke="#000000" points="146,-410.5251 150.5001,-420.5251 146,-415.5251 146.0001,-420.5251 146.0001,-420.5251 146.0001,-420.5251 146,-415.5251 141.5001,-420.5252 146,-410.5251 146,-410.5251"/>
</g>
<!-- regression -->
<g id="node4" class="node">
<title>regression</title>
<polygon fill="#c0c0c0" stroke="#c0c0c0" points="276.2399,-324.6327 15.7601,-324.6327 15.7601,-265.8299 276.2399,-265.8299 276.2399,-324.6327"/>
<text text-anchor="middle" x="146" y="-307.8313" font-family="Arial" font-size="14.00" fill="#000000">Performs regression with ARIMA noise </text>
<text text-anchor="middle" x="146" y="-291.0313" font-family="Arial" font-size="14.00" fill="#000000">User Given Regressors, Trading Day, </text>
<text text-anchor="middle" x="146" y="-274.2313" font-family="Arial" font-size="14.00" fill="#000000">Easter Effect, Outlier Variables</text>
</g>
<!-- specialeffect&#45;&gt;regression -->
<g id="edge3" class="edge">
<title>specialeffect&#45;&gt;regression</title>
<path fill="none" stroke="#000000" d="M146,-368.8486C146,-358.827 146,-346.4957 146,-334.8109"/>
<polygon fill="#000000" stroke="#000000" points="146,-324.7831 150.5001,-334.7831 146,-329.7831 146.0001,-334.7831 146.0001,-334.7831 146.0001,-334.7831 146,-329.7831 141.5001,-334.7832 146,-324.7831 146,-324.7831"/>
</g>
<!-- outliers -->
<g id="node5" class="node">
<title>outliers</title>
<polygon fill="#c0c0c0" stroke="#c0c0c0" points="217.5854,-229.8332 74.4146,-229.8332 74.4146,-188.6294 217.5854,-188.6294 217.5854,-229.8332"/>
<text text-anchor="middle" x="146" y="-213.4313" font-family="Arial" font-size="14.00" fill="#000000">Detects outliers one </text>
<text text-anchor="middle" x="146" y="-196.6313" font-family="Arial" font-size="14.00" fill="#000000">by one using t&#45;tests</text>
</g>
<!-- regression&#45;&gt;outliers -->
<g id="edge5" class="edge">
<title>regression&#45;&gt;outliers</title>
<path fill="none" stroke="#000000" d="M139.5503,-265.635C139.1683,-257.3675 139.1507,-248.3656 139.4975,-240.0305"/>
<polygon fill="#000000" stroke="#000000" points="140.1317,-229.9347 143.9958,-240.1972 139.8182,-234.9249 139.5047,-239.9151 139.5047,-239.9151 139.5047,-239.9151 139.8182,-234.9249 135.0135,-239.6329 140.1317,-229.9347 140.1317,-229.9347"/>
</g>
<!-- outliers&#45;&gt;regression -->
<g id="edge8" class="edge">
<title>outliers&#45;&gt;regression</title>
<path fill="none" stroke="#000000" d="M151.8683,-229.9347C152.5374,-237.6241 152.8256,-246.6285 152.7332,-255.4512"/>
<polygon fill="#000000" stroke="#000000" points="152.4497,-265.635 148.2298,-255.5136 152.5888,-260.6369 152.728,-255.6388 152.728,-255.6388 152.728,-255.6388 152.5888,-260.6369 157.2263,-255.7641 152.4497,-265.635 152.4497,-265.635"/>
</g>
<!-- missingvalue -->
<g id="node6" class="node">
<title>missingvalue</title>
<polygon fill="#c0c0c0" stroke="#c0c0c0" points="240.1735,-143.6175 51.8265,-143.6175 51.8265,-102.4137 240.1735,-102.4137 240.1735,-143.6175"/>
<text text-anchor="middle" x="146" y="-127.2156" font-family="Arial" font-size="14.00" fill="#000000">Corrects for missing values </text>
<text text-anchor="middle" x="146" y="-110.4156" font-family="Arial" font-size="14.00" fill="#000000">using Kalman Filters</text>
</g>
<!-- outliers&#45;&gt;missingvalue -->
<g id="edge6" class="edge">
<title>outliers&#45;&gt;missingvalue</title>
<path fill="none" stroke="#000000" d="M146,-188.3609C146,-177.9826 146,-165.2364 146,-153.7654"/>
<polygon fill="#000000" stroke="#000000" points="146,-143.6938 150.5001,-153.6938 146,-148.6938 146.0001,-153.6938 146.0001,-153.6938 146.0001,-153.6938 146,-148.6938 141.5001,-153.6939 146,-143.6938 146,-143.6938"/>
</g>
<!-- finalmodel -->
<g id="node8" class="node">
<title>finalmodel</title>
<ellipse fill="#f08080" stroke="#f08080" cx="367" cy="-123.0156" rx="66.7179" ry="29.3315"/>
<text text-anchor="middle" x="367" y="-127.2156" font-family="Arial" font-size="14.00" fill="#000000">Final ARIMA</text>
<text text-anchor="middle" x="367" y="-110.4156" font-family="Arial" font-size="14.00" fill="#000000"> model</text>
</g>
<!-- outliers&#45;&gt;finalmodel -->
<g id="edge7" class="edge">
<title>outliers&#45;&gt;finalmodel</title>
<path fill="none" stroke="#000000" d="M210.8886,-188.6237C235.2883,-180.4339 263.1323,-170.5565 288,-160.4313 296.3607,-157.0271 305.1014,-153.1848 313.594,-149.2917"/>
<polygon fill="#000000" stroke="#000000" points="322.6823,-145.0658 315.512,-153.3626 318.1485,-147.174 313.6146,-149.2822 313.6146,-149.2822 313.6146,-149.2822 318.1485,-147.174 311.7173,-145.2017 322.6823,-145.0658 322.6823,-145.0658"/>
</g>
<!-- output -->
<g id="node7" class="node">
<title>output</title>
<polygon fill="#c0c0c0" stroke="#c0c0c0" points="229.1319,-57.4019 62.8681,-57.4019 62.8681,-16.1981 229.1319,-16.1981 229.1319,-57.4019"/>
<text text-anchor="middle" x="146" y="-41" font-family="Arial" font-size="14.00" fill="#000000">Final Linearized Series, </text>
<text text-anchor="middle" x="146" y="-24.2" font-family="Arial" font-size="14.00" fill="#000000">Input for SEATS</text>
</g>
<!-- missingvalue&#45;&gt;output -->
<g id="edge9" class="edge">
<title>missingvalue&#45;&gt;output</title>
<path fill="none" stroke="#000000" d="M146,-102.1452C146,-91.767 146,-79.0208 146,-67.5498"/>
<polygon fill="#000000" stroke="#000000" points="146,-57.4782 150.5001,-67.4782 146,-62.4782 146.0001,-67.4782 146.0001,-67.4782 146.0001,-67.4782 146,-62.4782 141.5001,-67.4783 146,-57.4782 146,-57.4782"/>
</g>
<!-- UserRegressors -->
<g id="node9" class="node">
<title>UserRegressors</title>
<ellipse fill="#e0ffff" stroke="#e0ffff" cx="365" cy="-389.8469" rx="64.8286" ry="29.3315"/>
<text text-anchor="middle" x="365" y="-394.0469" font-family="Arial" font-size="14.00" fill="#000000">User given</text>
<text text-anchor="middle" x="365" y="-377.2469" font-family="Arial" font-size="14.00" fill="#000000"> Regressors</text>
</g>
<!-- UserRegressors&#45;&gt;regression -->
<g id="edge4" class="edge">
<title>UserRegressors&#45;&gt;regression</title>
<path fill="none" stroke="#000000" d="M321.2697,-367.9474C310.4634,-362.7162 298.8683,-357.2538 288,-352.4313 269.7116,-344.3162 249.8996,-336.0275 231.0418,-328.369"/>
<polygon fill="#000000" stroke="#000000" points="221.5773,-324.5451 232.5349,-324.1189 226.2132,-326.4182 230.8492,-328.2912 230.8492,-328.2912 230.8492,-328.2912 226.2132,-326.4182 229.1634,-332.4636 221.5773,-324.5451 221.5773,-324.5451"/>
</g>
</g>
</svg>

